<svg width="161" height="105" viewBox="0 0 161 105" fill="none" xmlns="http://www.w3.org/2000/svg">
<g clip-path="url(#clip0_384_397)">
<path d="M79.5698 13.7342H70.0538C69.4964 13.7335 68.9621 13.5116 68.5679 13.1171C68.1738 12.7226 67.9521 12.1877 67.9515 11.6297V2.10443C67.9521 1.54649 68.1738 1.01159 68.5679 0.617073C68.9621 0.222553 69.4964 0.000633205 70.0538 0H79.5698C80.1271 0.00063379 80.6615 0.222553 81.0556 0.617073C81.4498 1.01159 81.6715 1.54649 81.6721 2.10443V11.6297C81.6715 12.1877 81.4498 12.7226 81.0556 13.1171C80.6615 13.5116 80.1271 13.7335 79.5698 13.7342ZM70.0538 0.443038C69.6138 0.443528 69.1919 0.618724 68.8808 0.93019C68.5696 1.24165 68.3946 1.66395 68.3941 2.10443V11.6297C68.3946 12.0702 68.5696 12.4925 68.8808 12.804C69.1919 13.1154 69.6138 13.2906 70.0538 13.2911H79.5698C80.0098 13.2906 80.4317 13.1154 80.7428 12.804C81.054 12.4925 81.229 12.0702 81.2295 11.6297V2.10443C81.229 1.66395 81.054 1.24165 80.7428 0.93019C80.4317 0.618724 80.0098 0.443528 79.5698 0.443038H70.0538Z" fill="#CCCCCC"/>
<path d="M77.6887 11.076H71.9349C71.7589 11.0758 71.5901 11.0057 71.4657 10.8811C71.3412 10.7565 71.2712 10.5876 71.271 10.4114V3.32279C71.2712 3.1466 71.3412 2.97768 71.4657 2.85309C71.5901 2.7285 71.7589 2.65843 71.9349 2.65823H76.1041C76.2553 2.65836 76.402 2.71005 76.52 2.8048L78.1045 4.07939C78.1821 4.14149 78.2447 4.22032 78.2877 4.31001C78.3307 4.3997 78.3528 4.49793 78.3526 4.59739V10.4114C78.3524 10.5876 78.2824 10.7565 78.1579 10.8811C78.0335 11.0057 77.8647 11.0758 77.6887 11.076ZM71.9349 3.10127C71.8762 3.10135 71.82 3.12471 71.7785 3.16624C71.737 3.20776 71.7137 3.26406 71.7136 3.32279V10.4114C71.7137 10.4701 71.737 10.5264 71.7785 10.568C71.82 10.6095 71.8762 10.6328 71.9349 10.6329H77.6887C77.7474 10.6328 77.8036 10.6095 77.8451 10.568C77.8866 10.5264 77.9099 10.4701 77.91 10.4114V4.59739C77.9101 4.56424 77.9027 4.53151 77.8884 4.50162C77.8741 4.47173 77.8532 4.44546 77.8273 4.42476L76.2426 3.15005C76.2033 3.11852 76.1544 3.10131 76.1041 3.10127H71.9349Z" fill="#CCCCCC"/>
<path d="M76.5822 5.75949H73.0414C72.9827 5.75949 72.9264 5.73615 72.8849 5.69461C72.8434 5.65307 72.8201 5.59672 72.8201 5.53797C72.8201 5.47922 72.8434 5.42288 72.8849 5.38133C72.9264 5.33979 72.9827 5.31645 73.0414 5.31645H76.5822C76.6409 5.31645 76.6972 5.33979 76.7387 5.38133C76.7802 5.42288 76.8035 5.47922 76.8035 5.53797C76.8035 5.59672 76.7802 5.65307 76.7387 5.69461C76.6972 5.73615 76.6409 5.75949 76.5822 5.75949Z" fill="#CCCCCC"/>
<path d="M76.5822 7.08861H73.0414C72.9827 7.08861 72.9264 7.06527 72.8849 7.02373C72.8434 6.98218 72.8201 6.92584 72.8201 6.86709C72.8201 6.80834 72.8434 6.75199 72.8849 6.71045C72.9264 6.66891 72.9827 6.64557 73.0414 6.64557H76.5822C76.6409 6.64557 76.6972 6.66891 76.7387 6.71045C76.7802 6.75199 76.8035 6.80834 76.8035 6.86709C76.8035 6.92584 76.7802 6.98218 76.7387 7.02373C76.6972 7.06527 76.6409 7.08861 76.5822 7.08861Z" fill="#CCCCCC"/>
<path d="M76.5822 8.41772H73.0414C72.9827 8.41772 72.9264 8.39439 72.8849 8.35284C72.8434 8.3113 72.8201 8.25496 72.8201 8.1962C72.8201 8.13745 72.8434 8.08111 72.8849 8.03957C72.9264 7.99802 72.9827 7.97469 73.0414 7.97469H76.5822C76.6409 7.97469 76.6972 7.99802 76.7387 8.03957C76.7802 8.08111 76.8035 8.13745 76.8035 8.1962C76.8035 8.25496 76.7802 8.3113 76.7387 8.35284C76.6972 8.39439 76.6409 8.41772 76.5822 8.41772Z" fill="#CCCCCC"/>
<path d="M102.142 13.7342H92.6265C92.0691 13.7335 91.5347 13.5116 91.1406 13.1171C90.7464 12.7226 90.5247 12.1877 90.5241 11.6297V2.10443C90.5247 1.54649 90.7464 1.01159 91.1406 0.617073C91.5347 0.222553 92.0691 0.000633205 92.6265 0H102.142C102.7 0.00063379 103.234 0.222553 103.628 0.617073C104.022 1.01159 104.244 1.54649 104.245 2.10443V11.6297C104.244 12.1877 104.022 12.7226 103.628 13.1171C103.234 13.5116 102.7 13.7335 102.142 13.7342ZM92.6265 0.443038C92.1864 0.443528 91.7645 0.618724 91.4534 0.93019C91.1422 1.24165 90.9672 1.66395 90.9667 2.10443V11.6297C90.9672 12.0702 91.1422 12.4925 91.4534 12.804C91.7645 13.1154 92.1864 13.2906 92.6265 13.2911H102.142C102.582 13.2906 103.004 13.1154 103.315 12.804C103.627 12.4925 103.802 12.0702 103.802 11.6297V2.10443C103.802 1.66395 103.627 1.24165 103.315 0.93019C103.004 0.618724 102.582 0.443528 102.142 0.443038H92.6265Z" fill="#CCCCCC"/>
<path d="M100.483 9.30379H94.2862C94.1102 9.3036 93.9414 9.23352 93.817 9.10894C93.6925 8.98435 93.6225 8.81543 93.6223 8.63924V5.09493C93.6225 4.91874 93.6925 4.74982 93.817 4.62523C93.9414 4.50064 94.1102 4.43057 94.2862 4.43037H100.483C100.659 4.43057 100.827 4.50064 100.952 4.62523C101.076 4.74982 101.146 4.91874 101.146 5.09493V8.63924C101.146 8.81543 101.076 8.98435 100.952 9.10894C100.827 9.23352 100.659 9.3036 100.483 9.30379ZM94.2862 4.87341C94.2275 4.87347 94.1713 4.89683 94.1298 4.93836C94.0883 4.97989 94.065 5.0362 94.0649 5.09493V8.63924C94.065 8.69797 94.0883 8.75428 94.1298 8.79581C94.1713 8.83734 94.2275 8.8607 94.2862 8.86075H100.483C100.541 8.8607 100.598 8.83734 100.639 8.79581C100.68 8.75428 100.704 8.69797 100.704 8.63924V5.09493C100.704 5.0362 100.68 4.97989 100.639 4.93836C100.598 4.89683 100.541 4.87347 100.483 4.87341H94.2862Z" fill="#CCCCCC"/>
<path d="M97.3844 7.4515C97.2601 7.45168 97.1382 7.41694 97.0326 7.35123L93.7263 5.28282C93.6767 5.25159 93.6414 5.20194 93.6283 5.14476C93.6152 5.08758 93.6253 5.02753 93.6564 4.97779C93.6875 4.92804 93.737 4.89266 93.7941 4.87941C93.8512 4.86615 93.9112 4.87609 93.961 4.90706L97.2673 6.97547C97.3025 6.99732 97.3431 7.0089 97.3845 7.0089C97.4259 7.0089 97.4666 6.99732 97.5018 6.97547L100.808 4.90706C100.858 4.87609 100.918 4.86615 100.975 4.87941C101.032 4.89266 101.081 4.92804 101.112 4.97779C101.143 5.02753 101.154 5.08758 101.14 5.14476C101.127 5.20194 101.092 5.25159 101.043 5.28282L97.7365 7.35123C97.6308 7.41697 97.5088 7.45171 97.3844 7.4515Z" fill="#CCCCCC"/>
<path d="M56.9971 13.7342H47.4812C46.9238 13.7335 46.3894 13.5116 45.9953 13.1171C45.6012 12.7226 45.3795 12.1877 45.3788 11.6297V2.10443C45.3795 1.54649 45.6012 1.01159 45.9953 0.617073C46.3894 0.222553 46.9238 0.000633205 47.4812 0H56.9971C57.5545 0.00063379 58.0889 0.222553 58.483 0.617073C58.8771 1.01159 59.0988 1.54649 59.0995 2.10443V11.6297C59.0988 12.1877 58.8771 12.7226 58.483 13.1171C58.0889 13.5116 57.5545 13.7335 56.9971 13.7342ZM47.4812 0.443038C47.0412 0.443528 46.6193 0.618724 46.3081 0.93019C45.997 1.24165 45.8219 1.66395 45.8214 2.10443V11.6297C45.8219 12.0702 45.997 12.4925 46.3081 12.804C46.6193 13.1154 47.0412 13.2906 47.4812 13.2911H56.9971C57.4371 13.2906 57.859 13.1154 58.1702 12.804C58.4813 12.4925 58.6564 12.0702 58.6569 11.6297V2.10443C58.6564 1.66395 58.4813 1.24165 58.1702 0.93019C57.859 0.618724 57.4371 0.443528 56.9971 0.443038H47.4812Z" fill="#CCCCCC"/>
<path d="M55.3374 9.30379H49.141C48.9649 9.3036 48.7962 9.23352 48.6717 9.10894C48.5473 8.98435 48.4772 8.81543 48.4771 8.63924V5.09493C48.4772 4.91874 48.5473 4.74982 48.6717 4.62523C48.7962 4.50064 48.9649 4.43057 49.141 4.43037H55.3374C55.5134 4.43057 55.6821 4.50064 55.8066 4.62523C55.9311 4.74982 56.0011 4.91874 56.0013 5.09493V8.63924C56.0011 8.81543 55.9311 8.98435 55.8066 9.10894C55.6821 9.23352 55.5134 9.3036 55.3374 9.30379ZM49.141 4.87341C49.0823 4.87347 49.026 4.89683 48.9845 4.93836C48.943 4.97989 48.9197 5.0362 48.9197 5.09493V8.63924C48.9197 8.69797 48.943 8.75428 48.9845 8.79581C49.026 8.83734 49.0823 8.8607 49.141 8.86075H55.3374C55.396 8.8607 55.4523 8.83734 55.4938 8.79581C55.5353 8.75428 55.5586 8.69797 55.5587 8.63924V5.09493C55.5586 5.0362 55.5353 4.97989 55.4938 4.93836C55.4523 4.89683 55.396 4.87347 55.3374 4.87341H49.141Z" fill="#CCCCCC"/>
<path d="M54.3553 9.30379H49.9018C49.8241 9.30382 49.7478 9.28336 49.6805 9.24448C49.6132 9.2056 49.5573 9.14967 49.5184 9.08231C49.4796 9.01495 49.4592 8.93854 49.4592 8.86076C49.4592 8.78298 49.4797 8.70658 49.5185 8.63924L50.86 6.31329C50.8988 6.24593 50.9547 6.19001 51.022 6.15112C51.0893 6.11224 51.1656 6.09177 51.2433 6.09177C51.321 6.09177 51.3973 6.11224 51.4646 6.15112C51.5319 6.19001 51.5878 6.24593 51.6266 6.31329L52.493 7.81546L52.9949 6.94518C53.0338 6.87783 53.0897 6.8219 53.157 6.78301C53.2242 6.74413 53.3006 6.72366 53.3783 6.72366C53.456 6.72366 53.5323 6.74413 53.5996 6.78301C53.6669 6.8219 53.7227 6.87783 53.7616 6.94518L54.7387 8.63924C54.7775 8.70659 54.798 8.783 54.7979 8.86077C54.7979 8.93855 54.7775 9.01495 54.7386 9.08231C54.6998 9.14966 54.6439 9.20559 54.5766 9.24447C54.5093 9.28335 54.433 9.30381 54.3553 9.30379ZM54.3553 8.86075L53.3782 7.1667L52.6847 8.36926C52.6653 8.40294 52.6373 8.43091 52.6037 8.45035C52.57 8.4698 52.5319 8.48003 52.493 8.48002C52.4542 8.48003 52.416 8.4698 52.3823 8.45035C52.3487 8.43091 52.3208 8.40294 52.3013 8.36926L51.2433 6.5348L49.9018 8.86075H54.3553Z" fill="#CCCCCC"/>
<path d="M54.6734 6.20248C54.9179 6.20248 55.116 6.00413 55.116 5.75944C55.116 5.51476 54.9179 5.31641 54.6734 5.31641C54.429 5.31641 54.2308 5.51476 54.2308 5.75944C54.2308 6.00413 54.429 6.20248 54.6734 6.20248Z" fill="#CCCCCC"/>
<path d="M50.8007 34.557H41.2848C40.7274 34.5563 40.193 34.3344 39.7989 33.9399C39.4048 33.5454 39.1831 33.0105 39.1824 32.4525V22.9272C39.1831 22.3693 39.4048 21.8344 39.7989 21.4399C40.193 21.0453 40.7274 20.8234 41.2848 20.8228H50.8007C51.3581 20.8234 51.8925 21.0453 52.2866 21.4399C52.6807 21.8344 52.9024 22.3693 52.9031 22.9272V32.4525C52.9024 33.0105 52.6807 33.5454 52.2866 33.9399C51.8925 34.3344 51.3581 34.5563 50.8007 34.557ZM41.2848 21.2658C40.8447 21.2663 40.4229 21.4415 40.1117 21.753C39.8006 22.0644 39.6255 22.4867 39.625 22.9272V32.4525C39.6255 32.893 39.8006 33.3153 40.1117 33.6268C40.4229 33.9382 40.8447 34.1134 41.2848 34.1139H50.8007C51.2407 34.1134 51.6626 33.9382 51.9738 33.6268C52.2849 33.3153 52.46 32.893 52.4605 32.4525V22.9272C52.46 22.4867 52.2849 22.0644 51.9738 21.753C51.6626 21.4415 51.2407 21.2663 50.8007 21.2658H41.2848Z" fill="#3F3D56"/>
<path d="M49.1409 30.6804H42.9445C42.7685 30.6802 42.5998 30.6101 42.4753 30.4855C42.3508 30.3609 42.2808 30.192 42.2806 30.0158V25.3639C42.2808 25.1877 42.3508 25.0188 42.4753 24.8942C42.5998 24.7696 42.7685 24.6996 42.9445 24.6994H44.6889C44.8024 24.6989 44.914 24.7278 45.0131 24.7832C45.1121 24.8386 45.1952 24.9186 45.2544 25.0155L45.7408 25.807H49.141C49.317 25.8071 49.4857 25.8772 49.6102 26.0018C49.7347 26.1264 49.8047 26.2953 49.8049 26.4715V30.0158C49.8047 30.192 49.7347 30.3609 49.6102 30.4855C49.4857 30.6101 49.317 30.6802 49.1409 30.6804Z" fill="#D40000"/>
<path d="M22.597 35.9705C25.4291 35.9705 27.7249 33.6724 27.7249 30.8376C27.7249 28.0027 25.4291 25.7046 22.597 25.7046C19.765 25.7046 17.4691 28.0027 17.4691 30.8376C17.4691 33.6724 19.765 35.9705 22.597 35.9705Z" fill="#FFB8B8"/>
<path d="M20.7455 61.2102C20.681 61.2102 20.6161 61.2074 20.5509 61.2017C20.2284 61.1747 19.9152 61.0798 19.6319 60.9233C19.3486 60.7667 19.1015 60.552 18.9068 60.2932C18.7122 60.0344 18.5743 59.7374 18.5024 59.4215C18.4304 59.1057 18.4259 58.7782 18.4892 58.4605C18.5042 58.3867 18.523 58.3138 18.5456 58.2419L10.9773 49.282C10.7306 48.9877 10.5854 48.6218 10.563 48.2383C10.5407 47.8549 10.6424 47.4745 10.8531 47.1535L10.8669 47.1368L17.6793 40.4129C17.8645 40.23 18.0841 40.0858 18.3253 39.9884C18.5665 39.891 18.8247 39.8424 19.0848 39.8454C19.3449 39.8485 19.6018 39.903 19.8407 40.006C20.0796 40.109 20.2958 40.2583 20.4767 40.4454C20.6576 40.6325 20.7998 40.8536 20.8948 41.0959C20.9899 41.3383 21.0361 41.5971 21.0307 41.8574C21.0253 42.1178 20.9684 42.3744 20.8634 42.6126C20.7583 42.8508 20.6072 43.0658 20.4186 43.2452L15.4846 47.9405L20.8861 56.6184C20.9884 56.6238 21.0902 56.6363 21.1908 56.656C21.7495 56.7676 22.2469 57.0831 22.5863 57.5411C22.9257 57.9992 23.0829 58.5672 23.0274 59.1348C22.9719 59.7024 22.7077 60.2291 22.286 60.6127C21.8643 60.9962 21.3153 61.2092 20.7456 61.2102L20.7455 61.2102Z" fill="#FFB8B8"/>
<path d="M31.0426 102.276H33.6023L34.8199 92.3929L31.0421 92.3931L31.0426 102.276Z" fill="#FFB8B8"/>
<path d="M30.3897 101.439L35.4305 101.439H35.4307C35.8525 101.439 36.2703 101.522 36.66 101.684C37.0498 101.845 37.4039 102.082 37.7022 102.381C38.0005 102.679 38.2371 103.034 38.3986 103.424C38.56 103.814 38.6431 104.232 38.6431 104.654V104.759L30.3899 104.759L30.3897 101.439Z" fill="#2F2E41"/>
<path d="M5.60144 98.7332L7.80072 100.044L13.8982 92.1763L10.6522 90.2417L5.60144 98.7332Z" fill="#FFB8B8"/>
<path d="M5.46795 97.68L9.79916 100.261L9.79934 100.261C10.1618 100.478 10.4782 100.763 10.7305 101.101C10.9828 101.44 11.166 101.825 11.2697 102.234C11.3734 102.643 11.3955 103.069 11.3348 103.487C11.2741 103.905 11.1318 104.307 10.916 104.669L10.8626 104.759L3.77112 100.533L5.46795 97.68Z" fill="#2F2E41"/>
<path d="M34.2062 98.785H31.34C31.1079 98.7854 30.8839 98.6996 30.7114 98.5443C30.5388 98.3889 30.4299 98.175 30.4058 97.944L27.5162 70.7553C27.5089 70.6869 27.4794 70.6227 27.432 70.5728C27.3847 70.5229 27.3223 70.4899 27.2544 70.479C27.1865 70.4681 27.1169 70.4798 27.0564 70.5124C26.9958 70.545 26.9477 70.5967 26.9194 70.6594L21.7065 82.2135L12.4775 97.2774C12.3581 97.4705 12.1731 97.6141 11.9566 97.6819C11.74 97.7496 11.5063 97.737 11.2982 97.6464L7.61133 96.0227C7.48943 95.9689 7.38032 95.8899 7.29125 95.7908C7.20218 95.6916 7.13518 95.5747 7.09469 95.4476C7.05421 95.3206 7.04116 95.1864 7.05641 95.054C7.07167 94.9215 7.11487 94.7938 7.18317 94.6794L15.6672 80.4596L18.2691 68.4787C17.4508 63.283 20.959 55.5584 20.9946 55.4808L21.012 55.4431L30.6756 51.6622L30.7241 51.7216C34.5351 64.2405 36.8574 77.7129 35.1427 97.9234C35.1216 98.1578 35.0139 98.376 34.8408 98.5353C34.6676 98.6946 34.4414 98.7836 34.2062 98.785Z" fill="#2F2E41"/>
<path d="M20.6226 56.709L20.5776 56.6143C20.5561 56.569 18.4073 52.0325 16.7509 47.1839C16.4326 46.2463 16.3122 45.2527 16.3975 44.2662C16.4828 43.2796 16.7718 42.3214 17.2463 41.4525C17.727 40.5745 18.3846 39.8061 19.1774 39.1958C19.9702 38.5856 20.8811 38.1468 21.8521 37.9072C23.538 37.5028 25.3129 37.718 26.8535 38.5137C28.3942 39.3094 29.5979 40.6326 30.2456 42.2423C31.5595 45.5312 31.1407 49.0417 30.7466 51.8024L30.7388 51.8578L30.6885 51.8818L20.6226 56.709Z" fill="#D40000"/>
<path d="M28.8144 27.9381H20.6719V24.3853C22.4591 23.6745 24.208 23.0701 25.2651 24.3853C26.2065 24.3853 27.1092 24.7596 27.7748 25.4259C28.4405 26.0921 28.8144 26.9958 28.8144 27.9381Z" fill="#2F2E41"/>
<path d="M20.2211 23.7583C15.3534 23.7583 13.9909 29.8658 13.9909 33.3114C13.9909 35.233 14.8591 35.9202 16.2233 36.1528L16.7051 33.5807L17.8335 36.2635C18.2167 36.2654 18.6193 36.258 19.0366 36.2502L19.4192 35.4616L20.2724 36.2361C23.6895 36.2411 26.4512 36.7397 26.4512 33.3114C26.4512 29.8658 25.2564 23.7583 20.2211 23.7583Z" fill="#2F2E41"/>
<path d="M41.8578 30.5938C41.8888 30.6505 41.9174 30.7089 41.9436 30.7689C42.0746 31.0651 42.1416 31.3857 42.1402 31.7096C42.1388 32.0336 42.069 32.3536 41.9354 32.6486C41.8019 32.9437 41.6075 33.2072 41.3651 33.4218C41.1227 33.6365 40.8378 33.7974 40.5289 33.8942C40.457 33.9164 40.384 33.9349 40.3102 33.9494L36.0835 44.8935C35.9438 45.2512 35.6926 45.5543 35.3672 45.7578C35.0417 45.9612 34.6594 46.0543 34.277 46.023L34.2558 46.019L25.0947 43.2584C24.8456 43.1834 24.6139 43.0596 24.4128 42.8944C24.2118 42.7292 24.0454 42.5257 23.9234 42.2958C23.8013 42.0659 23.726 41.814 23.7018 41.5548C23.6775 41.2955 23.7048 41.0341 23.782 40.7854C23.8593 40.5368 23.985 40.306 24.1519 40.1062C24.3188 39.9065 24.5235 39.7419 24.7544 39.6218C24.9852 39.5018 25.2375 39.4286 25.4966 39.4067C25.7558 39.3848 26.0168 39.4145 26.2645 39.4941L32.7464 41.5772L37.7647 32.6718C37.7204 32.5794 37.6826 32.4839 37.6516 32.3862C37.4816 31.8418 37.5197 31.2537 37.7586 30.736C37.9975 30.2182 38.4201 29.8078 38.9443 29.5844C39.4685 29.361 40.0569 29.3406 40.5953 29.5272C41.1337 29.7137 41.5837 30.0938 41.8578 30.5938H41.8578Z" fill="#FFB8B8"/>
<path d="M107.896 34.557H98.3802C97.8229 34.5563 97.2885 34.3344 96.8944 33.9399C96.5002 33.5454 96.2785 33.0105 96.2779 32.4525V22.9272C96.2785 22.3693 96.5002 21.8344 96.8944 21.4399C97.2885 21.0453 97.8229 20.8234 98.3802 20.8228H107.896C108.453 20.8234 108.988 21.0453 109.382 21.4399C109.776 21.8344 109.998 22.3693 109.998 22.9272V32.4525C109.998 33.0105 109.776 33.5454 109.382 33.9399C108.988 34.3344 108.453 34.5563 107.896 34.557ZM98.3802 21.2658C97.9402 21.2663 97.5183 21.4415 97.2072 21.753C96.896 22.0644 96.721 22.4867 96.7205 22.9272V32.4525C96.721 32.893 96.896 33.3153 97.2072 33.6268C97.5183 33.9382 97.9402 34.1134 98.3802 34.1139H107.896C108.336 34.1134 108.758 33.9382 109.069 33.6268C109.38 33.3153 109.555 32.893 109.556 32.4525V22.9272C109.555 22.4867 109.38 22.0644 109.069 21.753C108.758 21.4415 108.336 21.2663 107.896 21.2658H98.3802Z" fill="#3F3D56"/>
<path d="M103.138 27.8006C102.744 27.8006 102.359 27.6837 102.032 27.4646C101.704 27.2456 101.449 26.9342 101.298 26.5699C101.147 26.2056 101.108 25.8048 101.185 25.418C101.262 25.0313 101.451 24.676 101.73 24.3972C102.008 24.1184 102.363 23.9285 102.75 23.8516C103.136 23.7747 103.536 23.8142 103.9 23.9651C104.264 24.1159 104.575 24.3715 104.794 24.6993C105.013 25.0272 105.13 25.4127 105.13 25.807C105.129 26.3355 104.919 26.8423 104.546 27.216C104.172 27.5898 103.666 27.8 103.138 27.8006Z" fill="#D40000"/>
<path d="M105.127 31.5665H101.15C100.932 31.5781 100.718 31.5032 100.555 31.358C100.392 31.2128 100.293 31.0091 100.28 30.7912C100.28 29.3865 101.562 28.2437 103.138 28.2437C104.714 28.2437 105.997 29.3865 105.997 30.7912C105.983 31.0091 105.884 31.2128 105.721 31.358C105.558 31.5032 105.345 31.5781 105.127 31.5665Z" fill="#D40000"/>
<path d="M133.223 102.237L130.51 102.237L129.219 91.762L133.224 91.7622L133.223 102.237Z" fill="#A0616A"/>
<path d="M128.572 101.461H133.805V104.759H125.278C125.278 104.326 125.363 103.897 125.529 103.497C125.694 103.097 125.937 102.733 126.243 102.427C126.549 102.121 126.912 101.878 127.311 101.712C127.711 101.547 128.14 101.461 128.572 101.461Z" fill="#2F2E41"/>
<path d="M153.086 94.7271L151.081 96.5575L143.075 89.6897L146.033 86.9883L153.086 94.7271Z" fill="#A0616A"/>
<path d="M149.127 97.2916L152.993 93.7617L155.213 96.1979L148.914 101.95C148.622 101.63 148.396 101.256 148.249 100.849C148.102 100.442 148.037 100.009 148.057 99.5767C148.076 99.1441 148.181 98.7196 148.365 98.3275C148.549 97.9354 148.808 97.5834 149.127 97.2916Z" fill="#2F2E41"/>
<path d="M130.555 99.8418C130.316 99.8425 130.084 99.7564 129.904 99.5993C129.723 99.4423 129.605 99.2249 129.572 98.9876L127.208 82.6196C127.09 81.8034 127.079 80.9753 127.174 80.1562L129.479 60.4465L144.195 61.6834L141.974 80.3587L150.375 90.8454C150.537 91.0459 150.614 91.3014 150.591 91.5579C150.569 91.8144 150.447 92.0521 150.253 92.2208L148.137 94.065C148.038 94.1515 147.923 94.2174 147.798 94.2591C147.673 94.3007 147.541 94.3171 147.41 94.3075C147.279 94.2978 147.151 94.2622 147.033 94.2027C146.916 94.1432 146.812 94.061 146.726 93.9609L138.765 84.6355C137.533 83.1882 136.646 81.479 136.172 79.6376L135.035 75.2007C135.017 75.1315 134.978 75.0699 134.922 75.025C134.867 74.98 134.798 74.9542 134.727 74.9513C134.656 74.9483 134.585 74.9685 134.526 75.0087C134.468 75.049 134.423 75.1071 134.4 75.1746L132.896 79.5216L133.848 98.6678C133.86 98.9306 133.768 99.1878 133.592 99.3834C133.417 99.5791 133.171 99.6973 132.908 99.7125L130.613 99.8401C130.594 99.8412 130.574 99.8418 130.555 99.8418Z" fill="#2F2E41"/>
<path d="M138.733 33.813C141.735 33.813 144.168 31.3771 144.168 28.3723C144.168 25.3675 141.735 22.9316 138.733 22.9316C135.731 22.9316 133.298 25.3675 133.298 28.3723C133.298 31.3771 135.731 33.813 138.733 33.813Z" fill="#A0616A"/>
<path d="M107.163 34.6979C107.294 34.9962 107.488 35.2621 107.732 35.477C107.977 35.6919 108.265 35.8506 108.578 35.9418C108.89 36.033 109.218 36.0546 109.54 36.005C109.862 35.9554 110.168 35.8358 110.439 35.6547L117.565 39.9764L117.011 36.3214L110.979 32.4193C110.645 31.9848 110.163 31.6881 109.625 31.5854C109.087 31.4826 108.53 31.581 108.06 31.8619C107.59 32.1427 107.238 32.5866 107.073 33.1093C106.908 33.632 106.94 34.1972 107.163 34.6979Z" fill="#A0616A"/>
<path d="M138.48 64.2086C135.594 64.2087 132.59 63.3122 129.551 61.5439C129.326 61.4128 129.154 61.206 129.066 60.9601C128.978 60.7142 128.98 60.445 129.071 60.2004L131.897 52.5786L131.254 43.5981C131.036 40.5433 132.557 37.6435 135.13 36.2107C136.053 35.6922 137.082 35.3903 138.138 35.3277C139.195 35.2651 140.252 35.4434 141.23 35.8492C142.278 36.2912 143.213 36.9656 143.963 37.8217C144.714 38.6777 145.26 39.6931 145.562 40.7913L146.469 43.9503C147.569 47.8141 147.442 51.9247 146.106 55.7133L143.479 63.099L143.41 63.1398C143.392 63.1506 141.589 64.2084 138.48 64.2086Z" fill="#CCCCCC"/>
<path d="M110.936 37.2334C110.813 37.0487 110.748 36.8315 110.751 36.6098C110.753 36.3881 110.821 36.1721 110.947 35.9899L112.325 33.9988C112.478 33.7775 112.707 33.6196 112.968 33.5548C113.23 33.49 113.506 33.5227 113.745 33.6467L123.958 38.9633L135.227 37.8325C135.936 37.765 136.647 37.9403 137.244 38.3297C137.842 38.7192 138.289 39.2999 138.514 39.9768C138.666 40.4446 138.707 40.9418 138.632 41.4282C138.557 41.9145 138.368 42.3763 138.082 42.7761C137.795 43.176 137.418 43.5026 136.982 43.7295C136.546 43.9564 136.062 44.0773 135.571 44.0823L125.062 44.189C123.956 44.1997 122.866 43.9259 121.895 43.3941L111.325 37.5915C111.168 37.5053 111.035 37.3824 110.936 37.2334Z" fill="#CCCCCC"/>
<path d="M143.417 69.0781C143.673 68.8766 143.881 68.6215 144.027 68.3307C144.174 68.0399 144.255 67.7205 144.264 67.395C144.274 67.0695 144.213 66.7458 144.084 66.4467C143.955 66.1477 143.762 65.8805 143.519 65.664L146.174 58.3506L142.513 59.1282L140.255 65.9528C139.919 66.3856 139.753 66.9269 139.789 67.474C139.824 68.0211 140.06 68.536 140.449 68.9213C140.839 69.3065 141.356 69.5352 141.903 69.5642C142.45 69.5931 142.989 69.4201 143.417 69.0781Z" fill="#A0616A"/>
<path d="M144.391 64.8245C144.261 64.8245 144.133 64.8016 144.011 64.7568L141.74 63.9225C141.487 63.8293 141.277 63.6472 141.149 63.4102C141.02 63.1733 140.983 62.8977 141.043 62.6349L143.619 51.4041L139.695 40.7698C139.451 40.0994 139.442 39.366 139.669 38.6897C139.895 38.0133 140.345 37.434 140.943 37.0463C141.357 36.7809 141.828 36.6169 142.317 36.5675C142.806 36.5181 143.3 36.5848 143.758 36.7621C144.217 36.9394 144.627 37.2223 144.956 37.588C145.285 37.9537 145.524 38.3919 145.652 38.867L148.395 49.0217C148.683 50.0907 148.692 51.2159 148.421 52.2895L145.465 63.9886C145.405 64.2276 145.266 64.4396 145.072 64.591C144.878 64.7424 144.638 64.8246 144.392 64.8245H144.391V64.8245Z" fill="#CCCCCC"/>
<path d="M139.092 32.2114C139.368 31.0666 139.504 30.4238 139.777 29.2783C139.96 28.5112 139.408 27.7257 138.716 27.3672C138.023 27.0087 137.221 26.9675 136.447 26.8916C135.674 26.8157 134.862 26.6804 134.259 26.1823C133.45 25.5136 133.219 24.2681 133.617 23.2885C133.83 22.807 134.157 22.3839 134.568 22.0548C134.979 21.7257 135.463 21.5003 135.979 21.3975C137.016 21.2077 138.086 21.3726 139.017 21.8656C139.382 21.0075 140.439 20.6345 141.347 20.7842C142.256 20.9339 143.045 21.4858 143.783 22.0437C145.156 23.0812 146.565 24.3389 146.869 26.0492C147.164 27.701 146.327 29.3678 145.207 30.6025C143.679 32.2818 141.63 33.3951 139.391 33.762C139.242 33.5359 139.138 33.2825 139.087 33.0165C139.036 32.7504 139.038 32.4768 139.092 32.2114Z" fill="black"/>
<path d="M159.988 105H117.498C117.44 105 117.383 104.977 117.342 104.935C117.3 104.894 117.277 104.837 117.277 104.778C117.277 104.72 117.3 104.663 117.342 104.622C117.383 104.58 117.44 104.557 117.498 104.557H159.988C160.047 104.557 160.103 104.58 160.144 104.622C160.186 104.663 160.209 104.72 160.209 104.778C160.209 104.837 160.186 104.894 160.144 104.935C160.103 104.977 160.047 105 159.988 105Z" fill="#CCCCCC"/>
<path d="M42.9201 105H0.430529C0.371836 105 0.315547 104.977 0.274046 104.935C0.232544 104.894 0.209229 104.837 0.209229 104.778C0.209229 104.72 0.232544 104.663 0.274046 104.622C0.315547 104.58 0.371836 104.557 0.430529 104.557H42.9201C42.9788 104.557 43.0351 104.58 43.0766 104.622C43.1181 104.663 43.1414 104.72 43.1414 104.778C43.1414 104.837 43.1181 104.894 43.0766 104.935C43.0351 104.977 42.9788 105 42.9201 105Z" fill="#CCCCCC"/>
</g>
<defs>
<clipPath id="clip0_384_397">
<rect width="160" height="105" fill="white" transform="translate(0.209229)"/>
</clipPath>
</defs>
</svg>
