<svg width="185" height="132" viewBox="0 0 185 132" fill="none" xmlns="http://www.w3.org/2000/svg">
<g clip-path="url(#clip0_384_459)">
<path d="M23.9857 21.0137C29.7682 21.0137 34.4558 16.3096 34.4558 10.5068C34.4558 4.70407 29.7682 0 23.9857 0C18.2032 0 13.5156 4.70407 13.5156 10.5068C13.5156 16.3096 18.2032 21.0137 23.9857 21.0137Z" fill="#FF6584"/>
<path d="M146.963 107.524C143.313 107.523 139.781 106.224 136.996 103.857C134.211 101.49 132.352 98.208 131.751 94.5952L131.738 94.5187L131.787 94.4596C132.606 93.4747 133.294 92.3874 133.834 91.2249C133.237 91.8781 132.561 92.4537 131.822 92.938L131.575 93.1028L131.561 92.8058C131.548 92.5495 131.542 92.2948 131.542 92.049C131.541 90.604 131.739 89.1659 132.132 87.7757C133.923 81.4611 134.229 74.68 133.042 67.6212C132.84 66.4108 132.738 65.1856 132.738 63.9582C132.74 58.7715 134.581 53.7548 137.933 49.8064C141.284 45.858 145.927 43.2358 151.03 42.4093C156.132 41.5828 161.362 42.606 165.781 45.2957C170.2 47.9854 173.521 52.1659 175.149 57.0887L175.199 57.2388L175.053 57.298C173.956 57.7637 172.794 58.0532 171.607 58.1558C172.861 58.4452 174.147 58.5691 175.432 58.5245L175.568 58.5197L175.601 58.6521C176.032 60.3877 176.25 62.1696 176.25 63.9582L176.249 64.1519C176.245 65.5216 176.528 66.8768 177.081 68.1292C177.634 69.3816 178.444 70.5029 179.458 71.4202C181.105 72.9243 182.408 74.7686 183.277 76.8264C184.146 78.8841 184.561 81.1064 184.493 83.3403C184.424 85.5742 183.875 87.7667 182.881 89.767C181.888 91.7673 180.474 93.528 178.738 94.9278L178.658 94.9929L178.563 94.9499C176.578 94.0457 175.131 93.0607 174.073 91.885C174.778 93.3938 175.728 94.7749 176.883 95.9721L177.033 96.1266L176.847 96.2351C174.489 97.6147 171.809 98.3411 169.079 98.3401L169.002 98.3399C168.974 98.3397 168.946 98.3397 168.919 98.3397C164.744 98.3397 160.787 99.9598 158.05 102.792C156.609 104.282 154.886 105.468 152.982 106.28C151.078 107.093 149.032 107.516 146.963 107.524Z" fill="#F2F2F2"/>
<path d="M141.505 131.906C141.438 131.906 141.374 131.882 141.323 131.838C141.273 131.794 141.24 131.733 141.23 131.666C141.218 131.583 140.06 123.201 141.1 112.06C142.061 101.772 145.146 86.9529 154.387 74.7823C154.409 74.7531 154.437 74.7286 154.469 74.7102C154.5 74.6917 154.535 74.6797 154.571 74.6748C154.608 74.6699 154.644 74.6722 154.68 74.6816C154.715 74.6909 154.748 74.7072 154.777 74.7294C154.806 74.7517 154.831 74.7794 154.849 74.8111C154.867 74.8428 154.879 74.8779 154.884 74.9142C154.889 74.9505 154.887 74.9875 154.878 75.023C154.868 75.0584 154.852 75.0917 154.83 75.1209C145.669 87.1864 142.608 101.897 141.655 112.112C140.62 123.188 141.77 131.505 141.781 131.588C141.787 131.627 141.784 131.668 141.773 131.706C141.761 131.744 141.742 131.78 141.716 131.81C141.69 131.84 141.657 131.865 141.621 131.881C141.585 131.898 141.545 131.906 141.505 131.906Z" fill="#3F3D56"/>
<path d="M146.125 90.8752C146.066 90.8753 146.009 90.8566 145.961 90.822C145.914 90.7873 145.878 90.7384 145.86 90.6823C145.842 90.6262 145.842 90.5658 145.86 90.5097C145.878 90.4536 145.914 90.4047 145.961 90.37C148.594 88.5813 151.439 87.1282 154.43 86.044C159.102 84.3275 166.206 82.7714 173.521 85.1074C173.555 85.1185 173.588 85.1364 173.616 85.16C173.644 85.1837 173.667 85.2126 173.683 85.2452C173.7 85.2778 173.71 85.3134 173.713 85.3499C173.717 85.3865 173.712 85.4233 173.701 85.4582C173.69 85.4932 173.672 85.5256 173.649 85.5536C173.625 85.5816 173.596 85.6047 173.564 85.6216C173.532 85.6384 173.496 85.6487 173.46 85.6518C173.423 85.6549 173.387 85.6507 173.352 85.6396C166.187 83.3516 159.212 84.882 154.621 86.5686C151.679 87.6342 148.88 89.0629 146.288 90.8218C146.241 90.8565 146.184 90.8752 146.125 90.8752Z" fill="#3F3D56"/>
<path d="M33.0514 111.165C30.455 111.16 26.3673 111.37 24.1408 112.55C22.4298 113.457 20.8715 114.628 19.5233 116.021C19.0036 116.56 18.5114 117.125 18.0485 117.713C16.768 113.318 16.619 108.668 17.6153 104.198C17.6854 103.897 17.6623 103.582 17.5493 103.295C17.4363 103.007 17.2386 102.761 16.9827 102.59C16.7268 102.418 16.4247 102.328 16.1169 102.333C15.809 102.338 15.51 102.437 15.2597 102.617C11.6425 105.264 9.32994 109.75 8.76753 114.289C8.05095 120.071 9.73827 125.898 12.0834 131.23L12.0827 131.233C12.0783 131.257 12.0718 131.283 12.0653 131.309C12.0566 131.348 12.0458 131.387 12.0371 131.427C12.0218 131.494 12.0046 131.564 11.9893 131.631L12.369 131.614C12.3908 131.625 12.4125 131.634 12.4341 131.644H21.9448C22.0708 131.507 22.1882 131.361 22.2963 131.209C23.3488 129.761 23.7849 127.799 24.3165 126.029C24.7016 124.747 25.1832 123.496 25.7574 122.288C27.2029 119.252 29.1976 116.512 31.6399 114.207C31.718 114.133 31.7983 114.059 31.8786 113.987C32.2877 113.609 32.9218 113.105 33.5414 112.631C33.6768 112.527 33.7765 112.384 33.8265 112.221C33.8766 112.058 33.8744 111.883 33.8203 111.721C33.7662 111.559 33.663 111.419 33.525 111.319C33.3871 111.219 33.2214 111.165 33.0514 111.165Z" fill="#F2F2F2"/>
<path d="M97.2658 21.1753C97.4895 21.803 97.4584 22.4938 97.1793 23.0988C96.9001 23.7038 96.3952 24.1744 95.7734 24.4092C95.6358 24.4607 95.494 24.5 95.3496 24.5264L93.9123 33.3579L90.5406 30.2339L92.4224 22.3263C92.3528 21.66 92.5473 20.9929 92.9638 20.4693C93.3804 19.9457 93.9855 19.6076 94.6485 19.5282C95.2062 19.4641 95.7691 19.5921 96.2448 19.8915C96.7204 20.1908 97.0804 20.6435 97.2658 21.1753L97.2658 21.1753Z" fill="#9E616A"/>
<path d="M72.3834 41.1865C72.3834 41.1865 75.0002 37.7169 84.4959 37.812L89.8857 35.8468L91.1174 24.5159L95.4287 25.546L94.8128 39.5551L85.5745 44.9115L73.462 47.3837L72.3834 41.1865Z" fill="#D40000"/>
<path d="M57.7923 126.606L60.2799 127.67L65.5525 118.548L61.8812 116.978L57.7923 126.606Z" fill="#9E616A"/>
<path d="M78.3482 128.968L81.0519 128.968L82.3383 118.502L78.3475 118.502L78.3482 128.968Z" fill="#9E616A"/>
<path d="M78.2529 131.799L86.5678 131.799V131.693C86.5677 130.832 86.2267 130.006 85.6198 129.397C85.0129 128.788 84.1897 128.445 83.3314 128.445H83.3312L81.8124 127.289L78.9786 128.446L78.2528 128.446L78.2529 131.799Z" fill="#2F2E41"/>
<path d="M56.2798 128.418L63.9291 131.689L63.9703 131.592C64.3068 130.8 64.3158 129.906 63.9954 129.107C63.675 128.308 63.0515 127.669 62.2619 127.331L62.2617 127.331L61.3163 125.67L58.2576 125.619L57.5899 125.333L56.2798 128.418Z" fill="#2F2E41"/>
<path d="M81.0005 67.0268L85.1098 92.1369L83.9915 95.8788L85.459 98.5289L83.3039 121.803L84.1787 123.735L81.7345 125.248H76.761L76.4971 104.178L75.2686 101.085V99.3796L72.7676 86.5317L72.3071 101.228L71.5796 104.326L72.1907 106.533L71.3923 108.078L64.5495 122.823H58.9726L59.4039 119.488C58.4047 118.981 60.9041 117.497 61.1443 116.399L60.3231 114.545L61.1443 111.043L61.8972 104.199L61.1032 89.7537L61.4768 70.3009L68.0008 65.2946L81.0005 67.0268Z" fill="#2F2E41"/>
<path d="M70.9931 33.9584C74.1057 33.9584 76.629 31.4262 76.629 28.3027C76.629 25.1791 74.1057 22.647 70.9931 22.647C67.8805 22.647 65.3572 25.1791 65.3572 28.3027C65.3572 31.4262 67.8805 33.9584 70.9931 33.9584Z" fill="#9E616A"/>
<path d="M61.2002 77.4426C61.3581 77.1584 61.4521 76.843 61.4754 76.5184C61.4987 76.1939 61.4509 75.8682 61.3352 75.5642C61.2195 75.2603 61.0388 74.9855 60.8059 74.7592C60.5729 74.5329 60.2933 74.3606 59.9868 74.2544L59.9735 66.3454L56.5582 68.6138L57.0945 75.7766C56.9509 76.3051 57.0055 76.8681 57.248 77.3589C57.4904 77.8498 57.9039 78.2343 58.41 78.4396C58.916 78.645 59.4796 78.6569 59.9939 78.4731C60.5081 78.2894 60.9373 77.9227 61.2002 77.4426Z" fill="#9E616A"/>
<path d="M60.8845 42.4476L59.3587 40.9718L58.2379 41.7836C58.2379 41.7836 57.1351 43.1115 56.2529 47.0954C55.3707 51.0793 56.2529 72.9906 56.2529 72.9906L61.1051 72.3266L60.4434 60.8176L62.4284 51.0793L60.8845 42.4476Z" fill="#D40000"/>
<path d="M58.6315 41.3317L63.772 38.8676L67.262 35.6192L73.6262 35.5714L75.6792 38.2496L81.099 40.0971L80.1957 58.8512L80.8115 60.2933C80.8115 60.2933 80.3825 60.6823 80.1864 60.8999C79.9904 61.1174 80.4573 62.9387 80.4573 62.9387L80.7206 64.9202L79.9904 65.4437L80.9397 66.569L81.1754 68.3428C81.1754 68.3428 64.6049 64.2097 61.4739 71.0565C61.3085 71.4182 61.7158 67.8828 61.7158 67.8828L62.1232 65.2946L61.7191 62.9716L61.1032 62.3535L62.1361 61.3169L61.4739 56.3985L58.6315 41.3317Z" fill="#D40000"/>
<path d="M112.287 126.495H109.236L107.785 114.688H112.287V126.495Z" fill="#FFB6B6"/>
<path d="M113.897 131.799H111.709L111.319 129.726L110.319 131.799H104.517C104.239 131.799 103.968 131.71 103.744 131.544C103.52 131.379 103.354 131.146 103.271 130.88C103.189 130.613 103.193 130.327 103.284 130.063C103.374 129.799 103.547 129.572 103.776 129.413L108.409 126.202V124.106L113.282 124.398L113.897 131.799Z" fill="#2F2E41"/>
<path d="M141.954 120.421L139.33 121.983L132.08 112.57L135.952 110.266L141.954 120.421Z" fill="#FFB6B6"/>
<path d="M146.035 124.159L144.153 125.279L142.764 123.696L142.957 125.991L137.967 128.961C137.727 129.103 137.449 129.165 137.172 129.138C136.896 129.11 136.635 128.994 136.428 128.808C136.222 128.621 136.08 128.373 136.024 128.099C135.968 127.826 136 127.542 136.116 127.288L138.469 122.154L137.404 120.352L141.744 118.108L146.035 124.159Z" fill="#2F2E41"/>
<path d="M110.925 50.9993L109.443 60.4827L123.526 60.6685L121.673 51.5572L110.925 50.9993Z" fill="#FFB6B6"/>
<path d="M109.389 60.3628L105.366 70.1519L105.073 96.3306L108.506 121.326H112.305L113.861 96.7381L117.689 79.9142L121.464 97.5103L133.203 114.733H138.971L128.366 95.7541L127.139 75.0796C127.139 75.0796 127.904 66.3089 123.989 61.1335L123.036 58.3706L109.389 60.3628Z" fill="#2F2E41"/>
<path d="M129.091 67.5099C128.699 67.4026 128.335 67.2104 128.025 66.9468C127.715 66.6832 127.466 66.3545 127.296 65.984C127.126 65.6135 127.04 65.2101 127.042 64.8023C127.044 64.3944 127.136 63.9921 127.31 63.6235L121.319 44.023L125.725 43.1464L131.205 62.3591C131.802 62.6936 132.257 63.2364 132.482 63.8847C132.708 64.533 132.688 65.2418 132.428 65.8767C132.167 66.5116 131.684 67.0285 131.069 67.3295C130.454 67.6305 129.75 67.6947 129.091 67.5099V67.5099Z" fill="#FFB6B6"/>
<path d="M121.984 57.8847L111.455 52.9583C111.178 52.9524 110.91 52.8553 110.692 52.6821C110.475 52.5088 110.321 52.2688 110.252 51.9989C109.732 49.9312 108.587 47.6329 109.194 42.2658C109.314 41.2261 109.64 40.2211 110.154 39.3102C110.668 38.3993 111.358 37.6011 112.185 36.9627C113.011 36.3244 113.957 35.8588 114.966 35.5937C115.975 35.3286 117.027 35.2692 118.059 35.4191C119.148 35.5755 120.192 35.9613 121.121 36.5509C122.051 37.1406 122.846 37.9209 123.455 38.8406C124.063 39.7604 124.471 40.7988 124.651 41.8877C124.831 42.9767 124.78 44.0916 124.5 45.1592C123.278 49.8159 123.409 54.7955 123.27 56.7095C123.249 56.9862 123.139 57.2485 122.956 57.4564C122.773 57.6643 122.527 57.8063 122.256 57.8608C122.175 57.8768 122.093 57.8849 122.011 57.885C122.002 57.885 121.993 57.8849 121.984 57.8847Z" fill="#D40000"/>
<path d="M99.3144 24.9658C99.256 25.0969 99.1873 25.2233 99.109 25.3436L104.143 37.1898L107.238 37.5707L107.275 42.3324L101.732 42.1923C101.284 42.1809 100.852 42.0241 100.501 41.7454C100.149 41.4667 99.8971 41.081 99.7826 40.6464L96.0511 26.4813C95.5225 26.3231 95.0544 26.0071 94.7092 25.5754C94.3639 25.1437 94.1578 24.6168 94.1182 24.0646C94.0786 23.5125 94.2075 22.9614 94.4877 22.4846C94.7679 22.0077 95.1861 21.6278 95.6867 21.3953C96.1873 21.1628 96.7466 21.0888 97.2902 21.1831C97.8337 21.2773 98.3358 21.5354 98.7296 21.923C99.1234 22.3106 99.3903 22.8094 99.4948 23.3529C99.5993 23.8964 99.5364 24.459 99.3144 24.9658V24.9658Z" fill="#FFB6B6"/>
<path d="M104.651 36.7676C104.776 36.6562 104.924 36.5732 105.084 36.5244C105.244 36.4755 105.413 36.4619 105.578 36.4845L111.37 37.2713C112.226 37.2601 113.052 37.5901 113.666 38.1889C114.28 38.7877 114.632 39.6064 114.646 40.4655C114.659 41.3246 114.333 42.154 113.738 42.7718C113.142 43.3896 112.328 43.7454 111.472 43.7612L105.683 44.6977C105.518 44.7244 105.349 44.715 105.187 44.6703C105.026 44.6256 104.876 44.5465 104.748 44.4384C104.62 44.3303 104.517 44.1958 104.445 44.0441C104.373 43.8923 104.335 43.7268 104.333 43.5589L104.258 37.6574C104.256 37.4895 104.29 37.3231 104.358 37.1695C104.425 37.0159 104.525 36.8788 104.651 36.7676Z" fill="#D40000"/>
<path d="M121.05 48.9879C120.902 48.9098 120.773 48.8004 120.671 48.6674C120.568 48.5345 120.496 48.3809 120.458 48.2173L119.143 42.5027C118.83 41.7031 118.846 40.8116 119.186 40.0235C119.527 39.2355 120.166 38.6152 120.962 38.2987C121.758 37.9823 122.646 37.9954 123.432 38.3352C124.219 38.6751 124.838 39.3139 125.156 40.1117L128.077 45.2139C128.16 45.3595 128.211 45.5214 128.227 45.6886C128.242 45.8558 128.221 46.0244 128.166 46.1829C128.11 46.3413 128.022 46.4859 127.905 46.6068C127.789 46.7277 127.649 46.8221 127.493 46.8835L122.019 49.0416C121.863 49.1031 121.696 49.1301 121.529 49.1208C121.362 49.1116 121.198 49.0662 121.05 48.9879Z" fill="#D40000"/>
<path d="M120.817 33.4039C123.703 31.821 124.763 28.1904 123.186 25.2947C121.608 22.3991 117.99 21.3349 115.105 22.9178C112.219 24.5007 111.159 28.1313 112.736 31.0269C114.314 33.9226 117.931 34.9868 120.817 33.4039Z" fill="#FFB6B6"/>
<path d="M113.865 25.7588C112.587 25.7516 111.31 25.7444 110.032 25.7372C109.941 24.8634 110.329 23.9941 110.893 23.3229C111.458 22.6515 112.189 22.1461 112.911 21.649C113.644 21.1443 114.403 20.6282 115.274 20.4519C116.004 20.3041 116.759 20.4066 117.497 20.5096C118.475 20.6461 119.453 20.7826 120.432 20.9191C121.505 21.0689 122.629 21.2384 123.501 21.8847C124.681 22.7587 124.379 24.776 125.511 25.7114C128.929 28.5363 127.545 31.0034 127.609 33.5783C123.478 34.0131 119.348 34.4479 115.217 34.8827C114.769 34.9601 114.31 34.9468 113.867 34.8433C113.433 34.7102 113.035 34.3499 113.003 33.8958C112.968 33.3887 113.368 32.9736 113.694 32.5841C114.471 31.6184 114.937 30.4388 115.031 29.2014C115.125 27.9641 114.842 26.7272 114.221 25.6545L113.865 25.7588Z" fill="#2F2E41"/>
<path d="M69.5513 33.6814C69.5273 33.6282 69.5033 33.5749 69.4793 33.5213C69.4885 33.5216 69.4977 33.5229 69.5069 33.5232L69.5513 33.6814Z" fill="#2F2E41"/>
<path d="M65.2005 22.9042C65.468 22.6508 65.8159 22.4999 66.1831 22.4779C66.5475 22.4896 66.9171 22.82 66.8416 23.1779C67.511 21.9885 68.5765 21.0738 69.8511 20.5942C71.1256 20.1146 72.5278 20.1008 73.8114 20.5553C74.7172 20.876 75.6055 21.5175 75.8136 22.4585C75.8338 22.7056 75.9072 22.9453 76.0288 23.1611C76.1341 23.2765 76.2707 23.3584 76.4218 23.3968C76.573 23.4353 76.732 23.4285 76.8794 23.3773L76.8883 23.3747C76.9387 23.3574 76.9932 23.3557 77.0446 23.3698C77.096 23.3839 77.142 23.4132 77.1767 23.4538C77.2113 23.4944 77.233 23.5446 77.239 23.5977C77.2449 23.6509 77.2349 23.7046 77.2101 23.7519L76.9538 24.2316C77.2768 24.3038 77.6125 24.2967 77.9323 24.2107C77.9854 24.1967 78.0415 24.1996 78.0929 24.2189C78.1443 24.2382 78.1886 24.2729 78.2195 24.3185C78.2505 24.364 78.2666 24.418 78.2658 24.4731C78.2649 24.5282 78.2471 24.5816 78.2148 24.6262C77.7889 25.2109 77.2328 25.6879 76.5908 26.019C75.9489 26.3501 75.2388 26.5263 74.517 26.5335C73.493 26.5273 72.4585 26.1731 71.4619 26.4094C71.0763 26.5008 70.7161 26.6777 70.4075 26.9271C70.099 27.1764 69.85 27.492 69.6788 27.8505C69.5076 28.209 69.4186 28.6014 69.4183 28.999C69.418 29.3965 69.5063 29.7891 69.6769 30.1479C69.3707 29.8119 68.7789 29.8914 68.4657 30.2209C68.3215 30.3973 68.2149 30.6015 68.1525 30.8209C68.0901 31.0403 68.0733 31.2702 68.103 31.4964C68.1866 32.1893 68.3915 32.8618 68.7085 33.4829C67.4976 33.4456 66.3272 33.0361 65.3556 32.3099C64.384 31.5837 63.6578 30.5758 63.2753 29.4222C62.8927 28.2686 62.8722 27.0251 63.2165 25.8594C63.5608 24.6938 64.2533 23.6623 65.2005 22.9042V22.9042Z" fill="#2F2E41"/>
<path d="M177.177 132H0.7676C0.702893 132 0.640901 131.974 0.595212 131.928C0.549523 131.882 0.523865 131.82 0.523865 131.755C0.523865 131.69 0.549523 131.627 0.595212 131.582C0.640901 131.536 0.702893 131.51 0.7676 131.509H177.177C177.209 131.509 177.241 131.516 177.271 131.528C177.301 131.54 177.328 131.558 177.35 131.581C177.373 131.604 177.391 131.631 177.404 131.661C177.416 131.69 177.422 131.722 177.422 131.755C177.422 131.787 177.416 131.819 177.404 131.849C177.391 131.879 177.373 131.906 177.35 131.928C177.328 131.951 177.301 131.969 177.271 131.982C177.241 131.994 177.209 132 177.177 132Z" fill="#CCCCCC"/>
<path d="M42.8802 2.44549C37.8059 1.7572 32.0128 4.5095 30.6977 9.47549C30.3662 8.59254 29.7637 7.83818 28.977 7.32139C28.1904 6.8046 27.2604 6.55215 26.3214 6.60051C25.3824 6.64886 24.4831 6.99551 23.7532 7.59039C23.0234 8.18526 22.501 8.99756 22.2614 9.90992L22.8423 10.3274C33.7163 12.6872 44.9726 12.6361 55.8249 10.1778C52.2952 6.4553 47.9545 3.13377 42.8802 2.44549Z" fill="#F0F0F0"/>
<path d="M21.1188 16.4546C16.0446 15.7663 10.2515 18.5186 8.93632 23.4846C8.60489 22.6016 8.00232 21.8473 7.21567 21.3305C6.42902 20.8137 5.49903 20.5613 4.56004 20.6096C3.62106 20.658 2.7217 21.0046 1.99189 21.5995C1.26209 22.1944 0.739635 23.0067 0.5 23.919L1.08093 24.3366C11.9549 26.6963 23.2112 26.6452 34.0635 24.1869C30.5339 20.4644 26.1931 17.1429 21.1188 16.4546Z" fill="#F0F0F0"/>
</g>
<defs>
<clipPath id="clip0_384_459">
<rect width="184" height="132" fill="white" transform="translate(0.5)"/>
</clipPath>
</defs>
</svg>
